<svg xmlns="http://www.w3.org/2000/svg" viewBox="0 0 115 115" fill="none">
  <rect x="9" y="9" width="97" height="97" rx="20" fill="#FF5A5F" />
  <path d="M73.1759 49.4822C72.6176 48.5346 71.853 47.72 70.9958 47.0346C70.3319 46.5027 69.6381 46.0134 68.9481 45.5182C63.4901 41.6263 57.945 37.8604 52.3184 34.2174C51.5306 33.7096 50.7451 33.1931 49.9433 32.7114C49.1563 32.2429 48.3192 31.8321 47.4221 31.6261C45.9759 31.2715 44.4174 31.4596 43.0858 32.1188L42.4945 32.4582C41.2076 33.2837 40.2323 34.5825 39.8157 36.0534C39.5582 36.9112 39.496 37.8128 39.5051 38.706C39.5174 39.63 39.5647 40.552 39.6051 41.4744C39.8069 45.9667 40.0804 50.4577 40.421 54.9392C40.6271 57.6213 40.8458 60.2998 41.1108 62.977C41.224 64.0895 41.3914 65.2143 41.8131 66.2583C42.4992 68.0345 43.8443 69.5449 45.5202 70.4451C46.9715 71.2315 48.6627 71.565 50.3058 71.3791C51.5811 71.234 52.8277 70.7866 53.902 70.0831C55.35 69.1469 56.4835 67.7827 57.2974 66.2722C58.2089 64.597 58.7561 62.7542 59.1875 60.9053C60.8772 61.4317 62.6107 61.8641 64.3857 61.9648C66.1018 62.0703 67.8653 61.8479 69.4384 61.1298C71.1595 60.3666 72.6082 59.0025 73.4515 57.3158C74.1969 55.8373 74.4747 54.131 74.2385 52.495C74.0861 51.4341 73.7256 50.402 73.1759 49.4822ZM57.3689 57.7177C56.6849 57.4727 56.0307 57.1598 55.3727 56.8528C54.2551 56.3132 53.1697 55.6972 52.1625 54.9711C51.3324 54.3643 50.547 53.6776 49.9254 52.8533C49.4385 52.1944 49.0353 51.4477 48.9094 50.6288C48.7813 49.8691 48.9127 49.0691 49.2704 48.3856C50.1164 46.748 52.0853 45.7411 53.9072 46.0939C54.8249 46.2663 55.6385 46.8318 56.1879 47.5744C56.9162 48.5656 57.288 49.7687 57.4851 50.9707C57.8389 53.2093 57.6757 55.4875 57.3662 57.7193L57.3689 57.7177ZM71.8459 52.3975C72.1978 53.8438 71.9549 55.4215 71.1864 56.6958C70.507 57.8284 69.4217 58.7085 68.1856 59.168C66.6185 59.7703 64.8916 59.7471 63.2582 59.4891C62.0595 59.3004 60.885 58.971 59.7307 58.601C60.039 56.5439 60.2416 54.4604 60.1192 52.3788C60.0089 50.5582 59.6625 48.7175 58.7966 47.0951C58.2435 46.0685 57.4643 45.1463 56.474 44.5192C55.1657 43.6725 53.5291 43.3837 52.0027 43.6656C50.5749 43.9236 49.234 44.6425 48.2212 45.6802C47.2655 46.6599 46.6171 47.9413 46.449 49.3022C46.2949 50.4919 46.5229 51.7159 47.0312 52.7972C47.7571 54.3586 48.9828 55.6295 50.3337 56.6765C52.321 58.1949 54.5912 59.2974 56.9145 60.1956C56.7108 61.2545 56.4189 62.2987 56.058 63.3173C55.4908 64.8855 54.6925 66.4233 53.4401 67.5551C52.4305 68.4787 51.1089 69.0669 49.7408 69.1385C48.1431 69.2331 46.5199 68.6142 45.3907 67.4799C44.5493 66.6514 43.9992 65.5542 43.7726 64.4019C43.5868 63.447 43.5183 62.4756 43.4233 61.5085C42.8216 54.9054 42.371 48.2881 42.0649 41.6638C42.021 40.6783 41.9684 39.6904 41.9525 38.7033C41.9448 37.9071 41.999 37.0863 42.3152 36.3432C42.6445 35.5347 43.2551 34.8438 44.0236 34.428C44.8037 33.9694 45.7489 33.811 46.6405 33.9694C47.5176 34.1217 48.3045 34.5649 49.049 35.0288C50.7369 36.0888 52.4074 37.1877 54.0747 38.2812C58.8376 41.4164 63.5395 44.641 68.1721 47.9597C68.8832 48.479 69.6145 48.9831 70.2439 49.6C71.0224 50.3631 71.5937 51.3395 71.8501 52.3986L71.8459 52.3975Z" fill="white"/>
</svg>